<svg id="visual" viewBox="0 0 1920 1080" width="1920" height="1080" xmlns="http://www.w3.org/2000/svg" xmlns:xlink="http://www.w3.org/1999/xlink" version="1.1"><path d="M0 958L45.7 966.7C91.3 975.3 182.7 992.7 274.2 993.3C365.7 994 457.3 978 548.8 964.2C640.3 950.3 731.7 938.7 823 943.7C914.3 948.7 1005.7 970.3 1097 969.5C1188.3 968.7 1279.7 945.3 1371.2 948.7C1462.7 952 1554.3 982 1645.8 983.7C1737.3 985.3 1828.7 958.7 1874.3 945.3L1920 932L1920 1081L1874.3 1081C1828.7 1081 1737.3 1081 1645.8 1081C1554.3 1081 1462.7 1081 1371.2 1081C1279.7 1081 1188.3 1081 1097 1081C1005.7 1081 914.3 1081 823 1081C731.7 1081 640.3 1081 548.8 1081C457.3 1081 365.7 1081 274.2 1081C182.7 1081 91.3 1081 45.7 1081L0 1081Z" fill="#393939" stroke-linecap="round" stroke-linejoin="miter"></path></svg>